<svg width="20" height="20" viewBox="0 0 20 20" fill="none" xmlns="http://www.w3.org/2000/svg">
<rect x="1" y="1" width="18" height="18" rx="3" stroke="url(#paint0_linear_30_2)" style="" stroke-width="2"/>
<g clip-path="url(#clip0_30_2)">
<path d="M10.0336 4C7.68873 4 5.75769 5.89655 5.75769 8.27586C5.75769 11.4483 7.99907 11.8618 8.137 13.5517L8.24045 14.5171C8.37838 15.4484 9.137 16.0002 9.99907 16.0002C10.8956 16.0002 11.5851 15.5168 11.7574 14.5171L11.8608 13.5517C12.0334 11.8618 14.2403 11.4483 14.2403 8.27586C14.3096 5.93103 12.3787 4 10.0336 4ZM11.4818 13.0345C11.3784 13.3105 11.2749 14.4487 11.2749 14.4487C11.137 15.1382 10.6198 15.4834 10.0336 15.4834C8.9301 15.4834 8.79217 14.4487 8.79217 14.4487C8.79217 14.4487 8.65424 13.2762 8.58528 13.0345C8.41286 12.5175 7.99907 11.9658 7.61976 11.4828C6.96459 10.7241 6.30941 9.93119 6.30941 8.24184C6.27493 6.2069 7.96459 4.5174 10.0336 4.5174C12.1024 4.5174 13.7922 6.20705 13.7922 8.27602C13.7922 9.96567 13.1027 10.7586 12.4818 11.5172C12.0682 11.9655 11.5853 12.6898 11.4818 13.0345Z" fill="black" style="fill:black;fill-opacity:1;"/>
<path d="M11.8958 8.17239C11.8958 8.06894 11.861 8.00013 11.861 7.89668L12.5505 7.27599L12.1367 6.58649L11.2746 6.89683C11.2058 6.82787 11.1367 6.79339 11.0677 6.72442L11.1362 5.82787L10.3777 5.62097L9.96426 6.44871C9.86081 6.44871 9.79185 6.48319 9.6884 6.48319L9.06771 5.79354L8.37805 6.20733L8.6884 7.06956C8.61943 7.13837 8.55047 7.20749 8.51599 7.27645L7.61943 7.20749L7.41254 7.96626L8.24012 8.38005C8.24012 8.4835 8.27461 8.55231 8.27461 8.65576L7.58495 9.2763L7.99874 9.9658L8.86081 9.65545C8.92978 9.72442 8.99874 9.7589 9.06771 9.82787L8.99874 10.7244L9.75736 10.9313L10.1712 10.1036C10.2746 10.1036 10.3434 10.0694 10.4469 10.0694L11.0677 10.7589L11.7572 10.3451L11.4124 9.51752C11.4815 9.44871 11.5503 9.37959 11.585 9.31047L12.4815 9.37944L12.6884 8.62082L11.8958 8.17239ZM10.5166 9.06925C10.0682 9.31032 9.51645 9.1727 9.24058 8.72442C8.96472 8.27614 9.13714 7.72442 9.58541 7.44856C10.0337 7.1727 10.5853 7.34496 10.861 7.79323C11.1027 8.24151 10.9301 8.82771 10.5166 9.06925Z" fill="black" style="fill:black;fill-opacity:1;"/>
</g>
<defs>
<linearGradient id="paint0_linear_30_2" x1="18" y1="2" x2="2" y2="18" gradientUnits="userSpaceOnUse">
<stop stop-color="#C80036" style="stop-color:#C80036;stop-color:color(display-p3 0.7843 0.0000 0.2118);stop-opacity:1;"/>
<stop offset="0.5" stop-color="#9211E2" style="stop-color:#9211E2;stop-color:color(display-p3 0.5735 0.0652 0.8863);stop-opacity:1;"/>
<stop offset="1" stop-color="#0C1844" style="stop-color:#0C1844;stop-color:color(display-p3 0.0471 0.0941 0.2667);stop-opacity:1;"/>
</linearGradient>
<clipPath id="clip0_30_2">
<rect width="12" height="12" fill="white" style="fill:white;fill-opacity:1;" transform="translate(4 4)"/>
</clipPath>
</defs>
</svg>
