<svg width="20" height="20" viewBox="0 0 20 20" fill="none" xmlns="http://www.w3.org/2000/svg">
<rect x="1" y="1" width="18" height="18" rx="3" stroke="url(#paint0_linear_30_2)" style="" stroke-width="2"/>
<path d="M5 9.73256C5 9.94447 5.1718 10.1163 5.38372 10.1163C5.59564 10.1163 5.76744 9.94447 5.76744 9.73256H5ZM5.93296 12.3554C5.85186 12.1596 5.62739 12.0666 5.4316 12.1477C5.23581 12.2288 5.14284 12.4532 5.22393 12.649L5.93296 12.3554ZM11.3862 15.4985L11.6635 15.0299L11.0031 14.639L10.7257 15.1076L11.3862 15.4985ZM9.33645 15.0299L9.61381 15.4985L10.2742 15.1076L9.99686 14.639L9.33645 15.0299ZM10.7257 15.1076C10.6271 15.2742 10.3729 15.2742 10.2742 15.1076L9.61381 15.4985C10.0096 16.1671 10.9904 16.1671 11.3862 15.4985L10.7257 15.1076ZM9.73256 5.76744H11.2674V5H9.73256V5.76744ZM15.2326 9.73256V10.2442H16V9.73256H15.2326ZM8.35244 13.6934C7.71012 13.6823 7.37356 13.6414 7.10974 13.5322L6.81606 14.2412C7.2279 14.4118 7.69699 14.4496 8.33922 14.4607L8.35244 13.6934ZM5.22393 12.649C5.52252 13.3699 6.09522 13.9426 6.81606 14.2412L7.10974 13.5322C6.57695 13.3114 6.15365 12.8882 5.93296 12.3554L5.22393 12.649ZM15.2326 10.2442C15.2326 10.8454 15.2324 11.2771 15.2091 11.6178C15.1861 11.955 15.1418 12.1749 15.067 12.3554L15.7761 12.649C15.896 12.3595 15.9491 12.0463 15.9748 11.67C16.0002 11.2972 16 10.8349 16 10.2442H15.2326ZM12.6608 14.4607C13.303 14.4496 13.7721 14.4118 14.1839 14.2412L13.8903 13.5322C13.6265 13.6414 13.2899 13.6823 12.6476 13.6934L12.6608 14.4607ZM15.067 12.3554C14.8463 12.8882 14.4231 13.3114 13.8903 13.5322L14.1839 14.2412C14.9048 13.9426 15.4775 13.3699 15.7761 12.649L15.067 12.3554ZM11.2674 5.76744C12.1122 5.76744 12.7189 5.76785 13.1921 5.81284C13.6597 5.85729 13.9571 5.94254 14.1943 6.08786L14.5953 5.43351C14.2172 5.20187 13.7884 5.09864 13.2648 5.04885C12.7468 4.9996 12.0974 5 11.2674 5V5.76744ZM16 9.73256C16 8.9026 16.0004 8.25319 15.9511 7.73522C15.9014 7.21154 15.7981 6.78274 15.5665 6.40474L14.9121 6.80573C15.0575 7.04288 15.1427 7.34036 15.1872 7.80786C15.2321 8.28107 15.2326 8.88774 15.2326 9.73256H16ZM14.1943 6.08786C14.4869 6.26716 14.7329 6.51315 14.9121 6.80573L15.5665 6.40474C15.3239 6.0089 14.9911 5.67609 14.5953 5.43351L14.1943 6.08786ZM9.73256 5C8.9026 5 8.25319 4.9996 7.73522 5.04885C7.21154 5.09864 6.78274 5.20187 6.40474 5.43351L6.80573 6.08786C7.04288 5.94254 7.34036 5.85729 7.80786 5.81284C8.28107 5.76785 8.88774 5.76744 9.73256 5.76744V5ZM5.76744 9.73256C5.76744 8.88774 5.76785 8.28107 5.81284 7.80786C5.85729 7.34036 5.94254 7.04288 6.08786 6.80573L5.43351 6.40474C5.20187 6.78274 5.09864 7.21154 5.04885 7.73522C4.9996 8.25319 5 8.9026 5 9.73256H5.76744ZM6.40474 5.43351C6.0089 5.67609 5.67609 6.0089 5.43351 6.40474L6.08786 6.80573C6.26716 6.51315 6.51315 6.26716 6.80573 6.08786L6.40474 5.43351ZM9.99686 14.639C9.893 14.4635 9.80183 14.3086 9.71317 14.1869C9.61974 14.0588 9.51266 13.9435 9.36411 13.857L8.97828 14.5205C9.00253 14.5345 9.03558 14.5603 9.09295 14.639C9.15504 14.7242 9.2252 14.8419 9.33645 15.0299L9.99686 14.639ZM8.33922 14.4607C8.56387 14.4646 8.70617 14.4674 8.81464 14.4794C8.916 14.4906 8.95528 14.5071 8.97828 14.5205L9.36411 13.857C9.21433 13.7699 9.05847 13.7343 8.8991 13.7166C8.74685 13.6998 8.56285 13.697 8.35244 13.6934L8.33922 14.4607ZM11.6635 15.0299C11.7748 14.8419 11.8449 14.7242 11.907 14.639C11.9644 14.5603 11.9974 14.5345 12.0217 14.5205L11.6359 13.857C11.4873 13.9435 11.3802 14.0588 11.2868 14.1869C11.1982 14.3086 11.107 14.4635 11.0031 14.639L11.6635 15.0299ZM12.6476 13.6934C12.4371 13.697 12.2531 13.6998 12.1009 13.7166C11.9415 13.7343 11.7857 13.7699 11.6359 13.857L12.0217 14.5205C12.0447 14.5071 12.084 14.4906 12.1854 14.4794C12.2938 14.4674 12.4361 14.4646 12.6608 14.4607L12.6476 13.6934Z" fill="#1C274C" style="fill:#1C274C;fill:color(display-p3 0.1098 0.1529 0.2980);fill-opacity:1;"/>
<path d="M12.2907 8.36658L12.3785 8.45436C13.0607 9.13653 13.4018 9.47764 13.4018 9.90147C13.4018 10.3253 13.0607 10.6664 12.3785 11.3486L12.2907 11.4364" stroke="#1C274C" style="stroke:#1C274C;stroke:color(display-p3 0.1098 0.1529 0.2980);stroke-opacity:1;" stroke-linecap="round"/>
<path d="M11.162 7.43024L10.4999 9.9012L9.83783 12.3722" stroke="#1C274C" style="stroke:#1C274C;stroke:color(display-p3 0.1098 0.1529 0.2980);stroke-opacity:1;" stroke-linecap="round"/>
<path d="M8.70924 8.36658L8.62146 8.45436C7.93929 9.13653 7.59821 9.47764 7.59821 9.90147C7.59821 10.3253 7.93929 10.6664 8.62146 11.3486L8.70924 11.4364" stroke="#1C274C" style="stroke:#1C274C;stroke:color(display-p3 0.1098 0.1529 0.2980);stroke-opacity:1;" stroke-linecap="round"/>
<defs>
<linearGradient id="paint0_linear_30_2" x1="18" y1="2" x2="2" y2="18" gradientUnits="userSpaceOnUse">
<stop stop-color="#C80036" style="stop-color:#C80036;stop-color:color(display-p3 0.7843 0.0000 0.2118);stop-opacity:1;"/>
<stop offset="0.5" stop-color="#9211E2" style="stop-color:#9211E2;stop-color:color(display-p3 0.5735 0.0652 0.8863);stop-opacity:1;"/>
<stop offset="1" stop-color="#0C1844" style="stop-color:#0C1844;stop-color:color(display-p3 0.0471 0.0941 0.2667);stop-opacity:1;"/>
</linearGradient>
</defs>
</svg>
