<svg width="20" height="20" viewBox="0 0 20 20" fill="none" xmlns="http://www.w3.org/2000/svg">
<rect x="1" y="1" width="18" height="18" rx="3" stroke="url(#paint0_linear_30_2)" style="" stroke-width="2"/>
<path d="M7.33316 15.3839H12.6669C13.7065 15.3839 14.2238 14.8616 14.2238 13.8119V6.1931C14.2238 5.14846 13.7065 4.61609 12.6669 4.61609H7.33316C6.29857 4.61609 5.77625 5.14846 5.77625 6.1931V13.8119C5.77625 14.8616 6.29857 15.3839 7.33316 15.3839ZM7.37334 14.5753C6.85603 14.5753 6.58483 14.2991 6.58483 13.7969V6.20817C6.58483 5.71096 6.85603 5.42467 7.37835 5.42467H12.6267C13.149 5.42467 13.4152 5.70592 13.4152 6.20817V13.7969C13.4152 14.2991 13.149 14.5753 12.6317 14.5753H7.37334ZM8.10157 7.52401H11.9085C12.0843 7.52401 12.2199 7.3834 12.2199 7.2076C12.2199 7.03683 12.0843 6.90627 11.9085 6.90627H8.10157C7.91574 6.90627 7.78515 7.03683 7.78515 7.2076C7.78515 7.3834 7.91574 7.52401 8.10157 7.52401ZM8.10157 9.2768H11.9085C12.0843 9.2768 12.2199 9.13617 12.2199 8.96039C12.2199 8.78962 12.0843 8.65906 11.9085 8.65906H8.10157C7.91574 8.65906 7.78515 8.78962 7.78515 8.96039C7.78515 9.13617 7.91574 9.2768 8.10157 9.2768ZM8.10157 11.0296H9.90459C10.0804 11.0296 10.216 10.894 10.216 10.7232C10.216 10.5475 10.0804 10.4118 9.90459 10.4118H8.10157C7.91574 10.4118 7.78515 10.5475 7.78515 10.7232C7.78515 10.894 7.91574 11.0296 8.10157 11.0296Z" fill="black" style="fill:black;fill-opacity:1;"/>
<defs>
<linearGradient id="paint0_linear_30_2" x1="18" y1="2" x2="2" y2="18" gradientUnits="userSpaceOnUse">
<stop stop-color="#C80036" style="stop-color:#C80036;stop-color:color(display-p3 0.7843 0.0000 0.2118);stop-opacity:1;"/>
<stop offset="0.5" stop-color="#9211E2" style="stop-color:#9211E2;stop-color:color(display-p3 0.5735 0.0652 0.8863);stop-opacity:1;"/>
<stop offset="1" stop-color="#0C1844" style="stop-color:#0C1844;stop-color:color(display-p3 0.0471 0.0941 0.2667);stop-opacity:1;"/>
</linearGradient>
</defs>
</svg>
